<?xml version="1.0"?><svg version="1.2" baseProfile="tiny-ps" viewBox="0 0 300 300" xmlns="http://www.w3.org/2000/svg" xmlns:xlink="http://www.w3.org/1999/xlink"><title>CobalithStudio</title><g><g fill="#2ea6f7" transform="matrix(.1 0 0 -.1 0 300)"><path d="m1302 2380-194-231 12-220c6-122 9-223 7-225s-51 29-108 71l-103 75-7-8c-10-10-169-304-169-311 0-5 189-496 207-540l6-14-18 10-18 10-41-15c-22-9-42-17-44-17-1-1 35-66 81-145l84-143 266-125 266-124 228 132c125 72 233 137 240 143 12 13 233 384 233 392 0 3-20 14-45 25s-45 23-45 28 34 97 75 205c41 107 75 203 75 212s-25 79-57 155l-56 140h-11c-6-1-65-33-131-73l-119-72-39-85-38-85 6 55c5 55 19 268 30 455l6 100-157 185c-86 102-172 204-192 228l-37 42-193-230z"/></g><g fill="#1481de" transform="matrix(.1 0 0 -.1 0 300)"><path d="m1485 2600-8-13 11 7 12 7v-14c0-11 158-550 175-594l4-12-82-68c-45-38-88-73-95-77l-13-8-117 98c-64 54-148 125-185 158l-68 59 6 16 6 16-11-11-12-12 12-222c6-122 9-224 7-226-2-3-46 26-98 64-52 37-100 71-107 76l-12 7 26-58c14-32 46-107 71-166l46-108-15-16-16-16-137 23c-75 12-138 20-140 18-3-2 41-121 96-264 55-142 103-266 105-274l5-15 107-59 107-59-54-18-53-19-21 11c-11 6-62 40-114 74-51 35-93 62-93 60 0-1 38-67 84-145l83-143 266-125 266-124 228 132c125 72 233 137 240 143 12 13 233 384 233 392 0 3-20 14-45 25s-45 23-45 28 34 97 75 205c41 107 75 203 75 212s-25 78-56 154l-56 138h-13c-8 0-12-4-9-8 3-6-154-268-176-292l-8-9-27 82c-15 45-29 79-31 77s-20-39-39-83l-36-79 6 55c5 56 19 271 30 455l6 100-157 185c-86 102-173 205-193 229l-37 45-9-14zm702-982-5-13-1 19c-1 11 2 17 5 13 3-3 4-12 1-19zm-170-445c-2-5-32-53-65-108l-61-100-206-205-205-205 40 95c23 52 59 136 81 186l40 92 130 108 129 109 58 17c31 9 58 17 60 17 2 1 1-2-1-6z"/></g><g fill="#106ec4" transform="matrix(.1 0 0 -.1 0 300)"><path d="M1500 2585c56-181 181-607 178-609-2-1-44-37-94-79l-92-76-6-93c-3-51-11-194-17-318s-12-229-13-234c-1-4-27 23-58 60l-55 69-53 176-52 175-53 42-54 41-3-21-3-20-95 69c-53 38-101 72-107 76l-12 7 14-27c7-16 39-88 70-161l57-133-12-28-11-28 76-279c42-154 78-285 80-292l5-14-33 20c-17 10-74 43-124 71-51 29-97 60-103 69-17 31-10 2 10-37l19-38 101-57c55-32 100-59 100-61s-24-11-53-21l-53-16-104 67c-58 37-108 73-112 79s-8 8-8 5c0-4 38-71 84-149l83-143 266-125 266-124 228 132c125 72 233 137 240 143 12 13 233 384 233 392 0 3-20 14-45 25s-45 23-45 28 34 97 75 205c41 107 75 203 75 212 0 21-112 296-118 290-5-5 14-225 24-276l5-26-113-7c-62-4-116-10-119-14-4-4-30-78-59-165l-52-158-24-29c-35-40-145-135-139-119 2 8 34 113 71 234 36 121 68 223 69 226 4 6 29 343 40 529l6 105-157 185c-86 102-173 205-195 230l-38 45 9-30zm-56-1494 109-110-23-63c-12-35-24-64-25-66-1-1-46 9-100 24l-98 27 7 90c3 50 6 116 6 149v58h8c4 0 56-49 116-109zm574 72c-8-10-38-56-66-103l-51-85-211-210-211-210 36 85c20 47 55 130 78 184l42 99 133 112 133 113 52 15c29 8 58 16 66 16l14 1-15-17zm-905 922v-60l4 33c2 18 2 45 0 60l-4 27v-60zm10-195v-75l4 38c2 20 2 54 0 75l-4 37v-75zm-383-370v-9l15 5c8 4 15 8 15 10s-7 4-15 4-15-4-15-10zm30-75c0-5 5-17 10-25l10-15v10c0 6-5 17-10 25l-10 15v-10zm50-130c0-5 5-17 10-25l10-15v10c0 6-5 17-10 25l-10 15v-10zm20-50c0-5 5-17 10-25l10-15v10c0 6-5 17-10 25l-10 15v-10zm30-80c0-5 5-17 10-25l10-15v10c0 6-5 17-10 25l-10 15v-10zm20-50c0-5 5-17 10-25l10-15v10c0 6-5 17-10 25l-10 15v-10z"/></g><g fill="#095aa9" transform="matrix(.1 0 0 -.1 0 300)"><path d="M1504 2585c3-11 43-149 91-306 47-157 85-290 85-295 0-6-42-45-93-87l-94-77-12-267c-8-148-16-295-20-328l-6-59-55 65-55 65-54 180-53 180-52 38-51 38-4-18-3-18 32-26 31-26-63-60c-35-34-71-70-81-81l-18-20 76-279c42-153 79-288 82-298l5-19-58 33c-33 18-92 51-132 73l-74 40 15-30 15-29 99-54 98-54 48-45c39-37 95-106 241-300l11-15-15 9c-8 5-49 36-90 70-199 162-477 360-454 323 5-7 9-18 10-25l2-12-14 6-14 5 6-16 6-16 11 7 10 6-6-11-7-10 49-84 50-83 265-124 265-123 228 132c125 72 233 137 240 143 6 7 61 97 123 201l111 189-12 11-12 11 6-11 7-12-18-7c-9-4-80-29-157-57l-140-49-213-212-213-212 8 20c4 11 39 94 78 185l71 164 129 110 129 110 65 21 65 21 35-17c20-9 45-19 56-23l20-6 77 205c43 112 78 211 78 220 0 17-111 297-116 292-2-1 3-66 11-142 8-77 15-148 15-157v-18h-228l-57-169-56-168-80-78c-44-43-82-76-84-73-2 2 29 114 70 248l75 245 14 200c8 110 17 247 21 305l6 105-132 155c-72 85-136 154-141 152l-9-2 5 9 6 10-20 14c-11 7-18 16-16 18 3 2-14 24-35 49l-40 45 5-20zm-59-1493 108-113-19-55c-10-30-22-60-25-66l-7-11-85 22c-46 13-90 27-97 31l-12 8 7 151 7 152 8-3c4-2 56-54 115-116zm-334 952 1-19 5 13c3 7 2 16-1 19-3 4-6-2-5-13zM856 932l-5-9 13-18 13-18-2 21c-2 26-11 37-19 24z"/></g><g fill="#06488d" transform="matrix(.1 0 0 -.1 0 300)"><path d="M1770 2276c0-2 8-10 18-17l17-14-14 18c-13 16-21 21-21 13zm99-124c-4-8-61-61-153-140l-38-33-34-467c-18-257-35-480-36-496l-3-29-130 153-130 153-55 180-55 181-50 39-50 40-4-19-3-18 18-14c11-7 24-16 31-20l11-7 37-155 37-155-6-185c-4-102-9-204-12-228l-6-43-16 13c-17 15-22 14-32-2l-7-11-104 59c-57 32-114 64-126 71l-23 12 12-26 12-26 100-56 101-56 53-51c30-28 101-114 159-191 59-77 110-145 115-152l9-11-23 4-23 5 41-22 42-22 233 135 234 135 69 114c37 63 90 152 118 198l49 84-18-8c-10-4-85-31-166-59l-149-53-205-207c-113-113-208-205-210-203-3 4 152 366 159 371 1 1 60 51 131 109 70 59 132 107 138 107h11l-11 14c-7 8-24 17-38 21l-26 6-79-78c-43-42-78-73-78-68 0 13 54 198 109 371l41 131 10 124c5 68 14 204 20 303 10 161 9 205-1 178zm-410-1072 98-105-25-62-24-63h-33l13-8 13-9-21-89c-11-49-22-102-25-118-2-16-7-31-11-35l-7-6 7 27 6 28h-10c-5 0-10-6-10-12 0-7-30 32-67 87l-66 99 11 40 10 41-7 5-7 5 10 158 9 158 19-18c11-10 64-65 117-123zm-129-200c0-5 5-10 10-10 6 0 10 5 10 10 0 6-4 10-10 10-5 0-10-4-10-10zm38-7c7-3 16-2 19 1 4 3-2 6-13 5l-19-1 13-5zm865 684-33-12-85-179c-47-99-84-181-82-182 5-6 100-44 102-42 7 10 155 409 155 417 0 14-16 13-57-2zm-1173-42-34-35 7-6 7-7 20 18c11 10 18 20 15 23s2 14 12 24c29 32 8 19-27-17zm21-211 1-19 5 13c3 7 2 16-1 19-3 4-6-2-5-13zm50-180 1-19 5 13c3 7 2 16-1 19-3 4-6-2-5-13zm10-40 1-19 5 13c3 7 2 16-1 19-3 4-6-2-5-13zm40-150 1-19 5 13c3 7 2 16-1 19-3 4-6-2-5-13zm9-349c14-8 30-14 35-14 6 0-1 6-15 14s-29 14-35 14c-5 0 1-6 15-14zm140-65c19-11 40-19 45-19 6 0-6 8-25 19s-39 19-45 19c-5 0 6-8 25-19z"/></g><g fill="#04376e" transform="matrix(.1 0 0 -.1 0 300)"><path d="M1790 2074c-47-42-90-81-97-87l-12-12-31-435c-34-485-40-550-49-549-3 0-63 69-133 153l-127 152-52 174c-29 96-56 180-60 185-5 6-29 26-54 44l-45 32v-36l32-20 31-21 38-164 38-165-5-95c-3-52-7-120-9-150s-4-97-5-149v-93l-32 24c-18 13-76 48-128 78-52 29-110 62-128 72l-32 20 11-26 12-26 106-60 106-59 62-63c33-35 112-130 174-213 62-82 116-151 120-153 5-2 16 2 26 8l18 11-21-6-21-5-25 58-25 58 81 187 81 186 125 106c69 59 134 110 145 114l20 8-33 17-33 17-17-13c-9-7-45-40-80-73s-67-61-72-63l-9-3 9 28c5 15 41 133 80 262l71 235 10 115c13 166 30 464 26 467-1 2-41-31-87-72zM1532 904c-16-43-37-117-47-164-9-47-21-103-27-124l-10-40-75 115-75 114 6 125c4 69 9 163 13 208l6 84 119-119 119-119-29-80zm712 653-40-9-86-182-85-181 51-21 51-20 78 204c43 112 77 207 75 211l-3 7-41-9zm-64-537c-6-11-8-20-6-20 3 0 10 9 16 20s8 20 6 20c-3 0-10-9-16-20z"/></g></g></svg>