<?xml version="1.0" standalone="no"?>
<!DOCTYPE svg PUBLIC "-//W3C//DTD SVG 20010904//EN"
 "http://www.w3.org/TR/2001/REC-SVG-20010904/DTD/svg10.dtd">
<svg version="1.0" xmlns="http://www.w3.org/2000/svg"
 width="1024.000000pt" height="1024.000000pt" viewBox="0 0 1024.000000 1024.000000"
 preserveAspectRatio="xMidYMid meet">

<g transform="translate(0.000000,1024.000000) scale(0.100000,-0.100000)"
fill="#000000" stroke="none">
<path d="M5061 8847 l-33 -42 36 38 c20 20 38 37 41 37 3 0 5 -18 5 -39 0 -22
4 -41 9 -43 4 -1 51 -147 104 -323 53 -176 189 -630 303 -1010 113 -379 207
-695 208 -701 2 -17 -433 -376 -446 -368 -6 4 -8 3 -4 -4 6 -10 -173 -165
-189 -164 -6 1 -201 164 -455 382 -74 64 -283 242 -465 397 -181 154 -343 293
-359 308 l-29 27 7 -149 c24 -535 57 -1196 65 -1293 5 -63 8 -116 7 -118 -4
-3 -346 243 -635 456 -118 88 -116 87 -142 37 -7 -13 -3 -11 10 5 l20 25 19
-45 c36 -83 424 -985 444 -1032 l20 -47 -47 -56 c-32 -37 -53 -54 -64 -50 -15
4 -811 136 -918 152 -24 3 -43 8 -43 10 0 2 7 16 16 31 l16 27 -21 -25 c-11
-14 -21 -30 -21 -36 0 -11 109 -301 230 -609 92 -235 174 -448 285 -740 56
-148 126 -328 156 -400 29 -71 53 -132 52 -135 -1 -3 165 -100 368 -215 203
-115 369 -211 369 -214 0 -4 -86 -35 -190 -70 l-191 -63 -212 140 c-117 76
-286 187 -375 246 -90 59 -162 109 -160 111 14 14 280 104 295 99 17 -5 17 -5
1 6 -18 11 -20 10 -256 -77 -23 -9 -45 -20 -48 -24 -4 -8 45 -102 121 -229 19
-30 122 -206 230 -390 108 -184 204 -343 213 -352 15 -15 333 -167 942 -450
369 -171 763 -361 802 -385 21 -13 43 -23 49 -23 11 0 131 67 339 187 47 27
247 143 445 257 674 389 822 476 837 494 8 9 44 67 80 127 157 263 687 1163
702 1192 l16 33 -67 31 c-38 17 -111 49 -163 71 -52 22 -98 42 -102 44 -4 3 2
26 13 52 11 26 58 144 104 262 250 646 425 1115 425 1138 0 9 -33 98 -74 197
-40 99 -131 323 -202 497 -72 178 -135 318 -141 318 -7 0 -13 -6 -13 -12 0 -7
-47 -87 -104 -178 -333 -527 -556 -882 -556 -884 0 -3 745 6 749 9 2 2 -9 111
-23 242 -14 131 -30 292 -36 358 -6 66 -12 138 -15 160 -2 22 -6 90 -9 150 -5
104 -4 102 10 -40 32 -331 75 -753 84 -814 5 -36 8 -66 7 -67 -1 -2 -179 -6
-394 -9 -376 -6 -392 -6 -391 12 1 15 -50 180 -162 527 -6 15 -8 31 -6 35 2 3
56 37 120 76 63 38 114 70 112 72 -2 2 -58 -29 -124 -69 l-122 -73 -86 -190
c-47 -104 -106 -239 -131 -300 -48 -119 -60 -139 -49 -85 36 188 151 2021 130
2075 -5 13 -241 300 -525 637 -284 337 -569 677 -633 756 -67 80 -125 142
-134 142 -9 0 -32 -19 -51 -43z m-1254 -1589 c-3 -8 -6 -5 -6 6 -1 11 2 17 5
13 3 -3 4 -12 1 -19z m10 -190 c-2 -13 -4 -5 -4 17 -1 22 1 32 4 23 2 -10 2
-28 0 -40z m10 -240 c-2 -24 -4 -5 -4 42 0 47 2 66 4 43 2 -24 2 -62 0 -85z
m10 -215 c-2 -21 -4 -4 -4 37 0 41 2 58 4 38 2 -21 2 -55 0 -75z m10 -190 c-2
-27 -3 -5 -3 47 0 52 1 74 3 48 2 -27 2 -69 0 -95z m10 -195 c-2 -24 -4 -7 -4
37 0 44 2 63 4 43 2 -21 2 -57 0 -80z m1230 -85 c-2 -16 -4 -5 -4 22 0 28 2
40 4 28 2 -13 2 -35 0 -50z m-1220 -150 c-2 -21 -4 -4 -4 37 0 41 2 58 4 38 2
-21 2 -55 0 -75z m1210 -45 c-2 -13 -4 -3 -4 22 0 25 2 35 4 23 2 -13 2 -33 0
-45z m-1016 -164 c93 -69 169 -127 169 -129 0 -2 20 -72 45 -155 25 -84 44
-154 42 -156 -2 -3 -25 66 -51 153 -26 87 -50 160 -54 163 -4 3 -82 62 -174
130 -92 69 -168 132 -168 140 1 12 3 11 11 -3 6 -9 86 -74 180 -143z m1006
-26 c-2 -18 -4 -4 -4 32 0 36 2 50 4 33 2 -18 2 -48 0 -65z m1474 49 c-10 -9
-11 -8 -5 6 3 10 9 15 12 12 3 -3 0 -11 -7 -18z m-45 -94 c-8 -15 -15 -25 -16
-21 0 12 23 58 27 54 3 -2 -2 -17 -11 -33z m-40 -90 c-8 -15 -15 -25 -16 -21
0 12 23 58 27 54 3 -2 -2 -17 -11 -33z m-1399 -70 c-2 -21 -4 -6 -4 32 0 39 2
55 4 38 2 -18 2 -50 0 -70z m1349 -40 c-8 -15 -15 -25 -16 -21 0 12 23 58 27
54 3 -2 -2 -17 -11 -33z m-45 -100 c-12 -20 -14 -14 -5 12 4 9 9 14 11 11 3
-2 0 -13 -6 -23z m-1314 -65 c-2 -13 -4 -3 -4 22 0 25 2 35 4 23 2 -13 2 -33
0 -45z m1289 5 c-8 -15 -15 -25 -16 -21 0 12 23 58 27 54 3 -2 -2 -17 -11 -33z
m-1957 -201 c29 -96 51 -176 49 -178 -5 -4 -108 334 -108 350 0 20 9 -6 59
-172z m1863 -32 c-20 -60 -38 -107 -40 -105 -4 3 55 189 65 208 15 25 7 -7
-25 -103z m-1205 23 c-3 -10 -5 -2 -5 17 0 19 2 27 5 18 2 -10 2 -26 0 -35z
m-2473 21 c3 -8 2 -12 -4 -9 -6 3 -10 10 -10 16 0 14 7 11 14 -7z m2463 -221
c-2 -16 -4 -3 -4 27 0 30 2 43 4 28 2 -16 2 -40 0 -55z m1142 -57 c-18 -58
-34 -104 -36 -102 -2 2 10 52 28 110 18 58 34 104 36 102 2 -2 -10 -52 -28
-110z m-1662 -170 c-3 -9 -78 226 -76 240 0 5 18 -45 40 -111 21 -66 37 -124
36 -129z m510 22 c-2 -13 -4 -3 -4 22 0 25 2 35 4 23 2 -13 2 -33 0 -45z
m1082 -82 c-18 -58 -34 -104 -36 -102 -2 2 11 51 28 110 18 58 35 104 37 102
2 -3 -11 -52 -29 -110z m-1535 -116 l36 -115 151 -180 c83 -99 169 -202 191
-230 40 -49 39 -49 -10 5 -28 31 -116 134 -197 230 l-146 175 -34 110 c-34
111 -56 199 -36 145 5 -14 26 -77 45 -140z m443 33 c-3 -10 -5 -4 -5 12 0 17
2 24 5 18 2 -7 2 -21 0 -30z m1032 -112 c-7 -23 -14 -39 -16 -37 -3 2 1 23 8
45 7 23 14 39 16 37 3 -2 -1 -23 -8 -45z m-1042 -78 c-3 -10 -5 -4 -5 12 0 17
2 24 5 18 2 -7 2 -21 0 -30z m1012 -22 c-7 -23 -14 -39 -16 -37 -3 2 1 23 8
45 7 23 14 39 16 37 3 -2 -1 -23 -8 -45z m-45 -150 c-15 -50 -29 -89 -31 -87
-2 2 8 45 23 95 15 50 29 89 31 87 3 -2 -8 -45 -23 -95z m-977 -18 c-3 -10 -5
-2 -5 17 0 19 2 27 5 18 2 -10 2 -26 0 -35z m-192 -319 c6 -6 124 -126 263
-267 l252 -255 -34 -99 c-62 -174 -135 -358 -143 -357 -31 5 -142 38 -139 41
3 3 29 -2 59 -11 78 -23 83 -21 100 27 9 23 43 116 77 207 33 91 59 172 58
181 -2 9 -172 190 -378 403 l-375 386 -7 -37 c-4 -21 -17 -213 -29 -428 -24
-449 -35 -608 -38 -547 -1 42 43 828 54 967 l6 70 132 -134 c73 -74 137 -140
142 -147z m1109 137 c-15 -50 -29 -89 -31 -87 -2 2 8 45 23 95 15 50 29 89 31
87 3 -2 -8 -45 -23 -95z m426 81 c0 -5 -109 -112 -242 -239 -315 -298 -332
-313 -325 -288 38 139 101 345 104 342 2 -3 -17 -73 -42 -157 -25 -83 -45
-157 -45 -162 0 -6 21 9 48 33 66 61 430 408 467 445 35 37 35 37 35 26z
m-1353 -79 c-3 -10 -5 -4 -5 12 0 17 2 24 5 18 2 -7 2 -21 0 -30z m1931 0
c-16 -18 -302 -480 -382 -618 -34 -58 -161 -190 -760 -792 -395 -398 -721
-721 -723 -719 -3 2 20 62 50 133 127 298 344 801 418 969 l80 182 167 139
c92 77 286 240 432 363 146 122 274 229 285 236 18 12 402 121 434 123 11 1
11 -2 -1 -16z m-3618 -549 c0 -2 -13 2 -30 11 -16 9 -30 18 -30 21 0 2 14 -2
30 -11 17 -9 30 -18 30 -21z m110 -59 c0 -3 -22 6 -50 20 -27 14 -50 28 -50
30 0 3 23 -6 50 -20 28 -14 50 -28 50 -30z m90 -50 c0 -3 -18 4 -40 15 -22 11
-40 23 -40 25 0 3 18 -4 40 -15 22 -11 40 -23 40 -25z m90 -50 c0 -3 -18 4
-40 15 -22 11 -40 23 -40 25 0 3 18 -4 40 -15 22 -11 40 -23 40 -25z m70 -41
c0 -2 -13 2 -30 11 -16 9 -30 18 -30 21 0 2 14 -2 30 -11 17 -9 30 -18 30 -21z
m90 -49 c0 -3 -18 4 -40 15 -22 11 -40 23 -40 25 0 3 18 -4 40 -15 22 -11 40
-23 40 -25z m176 -96 c66 -38 126 -69 132 -69 7 0 12 -5 12 -11 0 -5 -3 -8 -7
-6 -100 54 -303 171 -303 174 0 5 23 -7 166 -88z m679 -70 c14 -6 9 -7 -15 -3
-19 4 -44 11 -55 15 -14 6 -9 7 15 3 19 -4 44 -11 55 -15z m52 -15 c-3 -3 -12
-4 -19 -1 -8 3 -5 6 6 6 11 1 17 -2 13 -5z m58 -14 c13 -5 14 -9 5 -9 -8 0
-24 4 -35 9 -13 5 -14 9 -5 9 8 0 24 -4 35 -9z m110 -31 c14 -6 9 -7 -15 -3
-19 4 -44 11 -55 15 -14 6 -9 7 15 3 19 -4 44 -11 55 -15z m130 -35 c38 -13
38 -13 5 -7 -19 3 -53 12 -75 19 -38 13 -38 13 -5 7 19 -3 53 -12 75 -19z"/>
<path d="M5076 1943 c-6 -14 -5 -15 5 -6 7 7 10 15 7 18 -3 3 -9 -2 -12 -12z"/>
<path d="M4991 8767 l-25 -32 32 29 c33 31 37 36 25 35 -5 0 -19 -14 -32 -32z"/>
<path d="M5105 8765 c-28 -117 -42 -170 -86 -324 -28 -95 -48 -175 -46 -177 8
-8 150 504 144 520 -3 6 -8 -2 -12 -19z"/>
<path d="M4823 8568 c-76 -89 -201 -237 -278 -329 -77 -91 -266 -316 -420
-499 -316 -375 -328 -390 -322 -390 5 0 68 73 387 455 102 122 217 259 257
306 39 46 138 163 219 259 81 96 183 217 227 268 43 50 77 92 74 92 -3 0 -68
-73 -144 -162z"/>
<path d="M4956 8224 c-4 -14 -5 -28 -3 -31 3 -2 8 8 11 23 4 14 5 28 3 31 -3
2 -8 -8 -11 -23z"/>
<path d="M4936 8154 c-4 -14 -5 -28 -3 -31 3 -2 8 8 11 23 4 14 5 28 3 31 -3
2 -8 -8 -11 -23z"/>
<path d="M4906 8054 c-10 -31 -16 -58 -14 -60 3 -2 12 21 22 52 10 31 16 58
14 60 -3 2 -12 -21 -22 -52z"/>
<path d="M4857 7888 c-16 -50 -26 -92 -24 -94 2 -2 16 37 32 86 15 50 26 93
23 95 -2 2 -16 -37 -31 -87z"/>
<path d="M4811 7734 c0 -11 3 -14 6 -6 3 7 2 16 -1 19 -3 4 -6 -2 -5 -13z"/>
<path d="M4782 7643 c-12 -37 -19 -69 -17 -71 2 -2 13 26 24 64 12 37 19 69
17 71 -2 2 -13 -26 -24 -64z"/>
<path d="M4720 7453 c-31 -102 -92 -295 -181 -572 -32 -96 -38 -126 -28 -135
8 -8 10 -8 6 0 -4 6 -2 24 3 40 14 43 152 479 200 632 23 74 40 136 37 138 -2
2 -19 -44 -37 -103z"/>
<path d="M7354 6334 c-18 -14 -18 -15 4 -4 12 6 22 13 22 15 0 8 -5 6 -26 -11z"/>
<path d="M7298 6304 c-38 -20 -36 -28 2 -9 17 9 30 18 30 20 0 7 -1 6 -32 -11z"/>
<path d="M7234 6264 c-18 -14 -18 -15 4 -4 12 6 22 13 22 15 0 8 -5 6 -26 -11z"/>
<path d="M3054 6218 c-9 -18 -32 -62 -52 -98 -19 -36 -30 -60 -25 -55 15 14
106 185 99 185 -3 0 -13 -15 -22 -32z"/>
<path d="M7153 6219 c-29 -17 -53 -33 -53 -36 0 -5 89 44 105 58 16 16 1 9
-52 -22z"/>
<path d="M7058 6164 c-38 -20 -36 -28 2 -9 17 9 30 18 30 20 0 7 -1 6 -32 -11z"/>
<path d="M6958 6104 c-38 -20 -36 -28 2 -9 17 9 30 18 30 20 0 7 -1 6 -32 -11z"/>
<path d="M6877 6056 c-48 -29 -61 -43 -22 -23 31 16 74 46 65 46 -3 0 -22 -10
-43 -23z"/>
<path d="M2897 5928 c-60 -112 -71 -135 -60 -123 14 14 116 205 109 205 -2 0
-24 -37 -49 -82z"/>
<path d="M2785 5720 c-14 -27 -23 -50 -20 -50 2 0 16 23 30 50 14 28 23 50 20
50 -2 0 -16 -22 -30 -50z"/>
<path d="M2710 5580 c-17 -33 -28 -60 -25 -60 2 0 18 27 35 60 17 33 28 60 25
60 -2 0 -18 -27 -35 -60z"/>
<path d="M2650 5470 c-11 -22 -18 -40 -15 -40 2 0 14 18 25 40 11 22 18 40 15
40 -2 0 -14 -18 -25 -40z"/>
<path d="M2590 5360 c-11 -22 -18 -40 -15 -40 2 0 14 18 25 40 11 22 18 40 15
40 -2 0 -14 -18 -25 -40z"/>
<path d="M3180 3370 c8 -5 20 -10 25 -10 6 0 3 5 -5 10 -8 5 -19 10 -25 10 -5
0 -3 -5 5 -10z"/>
</g>
</svg>
